<?xml version="1.0" encoding="UTF-8"?> <svg xmlns="http://www.w3.org/2000/svg" viewBox="0 0 429.73 432"><defs><style>.cls-1{fill:#13283b;}.cls-2{fill:#f9e6da;}.cls-3{fill:#f2bc95;}.cls-4{fill:#eb8e52;}.cls-5{fill:#e36e26;}</style></defs><g id="Layer_2" data-name="Layer 2"><g id="Layer_1-2" data-name="Layer 1"><rect class="cls-1" width="429.73" height="432"></rect><path class="cls-2" d="M388.31,217.26a172.32,172.32,0,0,0-23.42-86.87l-19.2,10.78-36.8,20.65a108.81,108.81,0,0,1,1.19,108.81l.05,0,8.3,43.71,46.73-10.75h0l.07,0-.05,0A172.28,172.28,0,0,0,388.31,217.26Z"></path><path class="cls-3" d="M364.89,130.39A173.51,173.51,0,0,0,215.58,43.83L215,108.06a109.23,109.23,0,0,1,93.86,53.7h0l0,0,0,0L352,178.2Z"></path><path class="cls-4" d="M248.83,78.4,214.87,44v-.15h-.15a173.44,173.44,0,0,0-146.95,81.7l55.11,33a109.16,109.16,0,0,1,92-50.47v-.51Z"></path><path class="cls-5" d="M318.43,314.37l-8.3-43.71-.05,0a109.15,109.15,0,1,1-187.2-112.11l-8.29-43.74L67.77,125.52a172.36,172.36,0,0,0-26.35,91.74c0,95.63,77.81,173.44,173.45,173.44a173.49,173.49,0,0,0,150.3-87.07h0Z"></path></g></g></svg> 